# xmcd
#
# Track frame offsets: 
#        150
#        3539
#        31373
#        57641
#        77344
#        100162
#        116683
#        144252
#        185776
#        203483
#        236990
#        265811
#
# Disc length: 3958 seconds
#
# Revision: 0
# Processed by: cddbd v1.5.2PL0 Copyright (c) Steve Scherf et al.
# Submitted via: ExactAudioCopy v1.3
#
DISCID=a20f740c
DTITLE=Tiger City Jukes - Live I Artilleriverkstedet
DYEAR=2019
DGENRE=Blues Rock
TTITLE0=Prolog
TTITLE1=Man Overboard
TTITLE2=Hoodooed
TTITLE3=Sunray
TTITLE4=Demon
TTITLE5=Before The Night Is Old
TTITLE6=Lazy Days
TTITLE7=How Blue Can You Get
TTITLE8=Backseat Love Affair
TTITLE9=Save Your Breath
TTITLE10=Shine Your Light
TTITLE11=Shakin' All Over
EXTD=
EXTT0=
EXTT1=
EXTT2=
EXTT3=
EXTT4=
EXTT5=
EXTT6=
EXTT7=
EXTT8=
EXTT9=
EXTT10=
EXTT11=
PLAYORDER=
